<svg xmlns="http://www.w3.org/2000/svg" width="64" height="64" viewBox="0 0 64 64">
    <g fill="none" fill-rule="evenodd" transform="translate(15 4)">
        <path stroke="#545454" stroke-linecap="round" stroke-width="2" d="M3.11 0c4.146 7.916 4.146 16.84 0 26.772-4.147 9.931-4.147 19.674 0 29.228"/>
        <circle cx="16.5" cy="27.5" r="1.5" fill="#545454"/>
        <path stroke="#545454" stroke-linecap="round" stroke-width="2" d="M31.11 0c-4.147 7.916-4.147 16.84 0 26.772 4.146 9.931 4.146 19.674 0 29.228"/>
        <path stroke="#545454" stroke-linecap="round" stroke-width="2" d="M2 29.897a21.913 21.913 0 0 0 14.278 5.262c5.929 0 11.31-2.346 15.266-6.159M1.278 38c5.929 0 11.31 2.345 15.266 6.159M17 44.159a21.913 21.913 0 0 1 14.278-5.262c.96 0 1.906.061 2.834.18M16.5 44.5v8"/>
    </g>
</svg>
