<?xml version="1.0" encoding="UTF-8"?>
<svg width="20px" height="20px" viewBox="0 0 20 20" version="1.1" xmlns="http://www.w3.org/2000/svg" xmlns:xlink="http://www.w3.org/1999/xlink">
    <!-- Generator: sketchtool 49.3 (51167) - http://www.bohemiancoding.com/sketch -->
    <title>3323F42B-B8F4-4B5C-8BCF-B5C3FCFFAFD4</title>
    <desc>Created with sketchtool.</desc>
    <defs></defs>
    <g id="Symbols" stroke="none" stroke-width="1" fill="none" fill-rule="evenodd">
        <g id="Icon-/-Close" fill="#545454">
            <g id="Group">
                <g transform="translate(10.000000, 10.000000) rotate(45.000000) translate(-10.000000, -10.000000) translate(4.000000, 4.000000)">
                    <path d="M7,5 L11,5 C11.5522847,5 12,5.44771525 12,6 C12,6.55228475 11.5522847,7 11,7 L7,7 L7,11 C7,11.5522847 6.55228475,12 6,12 C5.44771525,12 5,11.5522847 5,11 L5,7 L1,7 C0.44771525,7 -7.03779198e-15,6.55228475 -7.10542736e-15,6 C-7.17306273e-15,5.44771525 0.44771525,5 1,5 L5,5 L5,1 C5,0.44771525 5.44771525,1.01453063e-16 6,0 C6.55228475,-1.01453063e-16 7,0.44771525 7,1 L7,5 Z" id="Combined-Shape"></path>
                </g>
            </g>
        </g>
    </g>
</svg>