<?xml version="1.0" encoding="UTF-8"?>
<svg width="40px" height="40px" viewBox="0 0 40 40" version="1.1" xmlns="http://www.w3.org/2000/svg" xmlns:xlink="http://www.w3.org/1999/xlink">
    <!-- Generator: sketchtool 49.3 (51167) - http://www.bohemiancoding.com/sketch -->
    <title>1CADF7D4-43B8-4EE3-AD88-F6C3FF84A456</title>
    <desc>Created with sketchtool.</desc>
    <defs></defs>
    <g id="Symbols" stroke="none" stroke-width="1" fill="none" fill-rule="evenodd">
        <g id="Social-/-Facebook" fill="#000000" fill-rule="nonzero">
            <g id="icon">
                <g transform="translate(4.000000, 4.000000)">
                    <path d="M26,0 L6,0 C2.68553846,0 0,2.68553846 0,6 L0,26 C0,29.3144615 2.68553846,32 6,32 L26,32 C29.3144615,32 32,29.3144615 32,26 L32,6 C32,2.68553846 29.3144615,0 26,0 Z M25.1864615,17.2332308 L22.192,17.2332308 L22.192,28.3150769 L17.1913846,28.3150769 L17.1913846,17.2332308 L15.2516923,17.2332308 L15.2516923,13.5003077 L17.1913846,13.5003077 L17.1913846,11.1224615 C17.1926154,8.00492308 18.4873846,6.15384615 22.1612308,6.15384615 L25.8843077,6.15384615 L25.8843077,9.87323077 L23.7218462,9.87323077 C22.2916923,9.87323077 22.1981538,10.4061538 22.1981538,11.4030769 L22.192,13.4990769 L25.5938462,13.4990769 L25.1864615,17.2332308 Z" id="Shape"></path>
                </g>
            </g>
        </g>
    </g>
</svg>