<svg xmlns="http://www.w3.org/2000/svg" width="64" height="64" viewBox="0 0 64 64">
    <g fill="none" fill-rule="evenodd" transform="translate(4 1)">
        <path stroke="#545454" stroke-width="2" d="M51.358 39.846a6.002 6.002 0 0 0-.054-11.704M4.945 39.846A6.002 6.002 0 0 1 5 28.142M51 26v12c0 13.255-10.297 24-23 24S5 51.255 5 38V22"/>
        <path fill="#545454" fill-rule="nonzero" d="M18.7 30.699a1 1 0 0 1-1.5 1.32A2.99 2.99 0 0 0 14.945 31c-.852 0-1.644.355-2.21.97a1 1 0 1 1-1.472-1.353A4.988 4.988 0 0 1 14.946 29a4.99 4.99 0 0 1 3.755 1.699zM30.7 50.66a1 1 0 0 0-1.5-1.32 2.99 2.99 0 0 1-2.254 1.02 2.989 2.989 0 0 1-2.21-.971 1 1 0 1 0-1.472 1.353 4.988 4.988 0 0 0 3.682 1.617 4.99 4.99 0 0 0 3.755-1.698z"/>
        <circle cx="15" cy="36" r="2" fill="#545454"/>
        <circle cx="41" cy="36" r="2" fill="#545454"/>
        <path fill="#545454" fill-rule="nonzero" d="M44.7 30.699a1 1 0 0 1-1.5 1.32A2.99 2.99 0 0 0 40.945 31c-.852 0-1.644.355-2.21.97a1 1 0 1 1-1.472-1.353A4.988 4.988 0 0 1 40.946 29a4.99 4.99 0 0 1 3.755 1.699z"/>
        <path stroke="#545454" stroke-width="2" d="M51 26.713V9a4 4 0 0 0-4-4h-2c-.554 0-1.069.225-1.445.617l-.487.509-.643-.288C35.213 2.612 27.74 1 20 1c-3.046 0-6.083.57-9.115 1.712A15.268 15.268 0 0 0 1 17v7.382l4.012-2.006a9 9 0 0 1 5.978-.736l6.227 1.384a23.281 23.281 0 0 0 16.357-2.376l9.331-5.184.155 1.51A11.441 11.441 0 0 0 51 26.712z"/>
    </g>
</svg>
