<svg xmlns="http://www.w3.org/2000/svg" width="64" height="64" viewBox="0 0 64 64">
    <g fill="none" fill-rule="nonzero">
        <path stroke="#545454" stroke-width="2" d="M61.244 45.023c-.965-.895-2.385-1.206-4.577-1.13a39.17 39.17 0 0 0-1.752.108l-.1.007c-1.198.092-1.697.122-2.303.122-1.711 0-3.34-.868-8.526-4.142-6.022-3.8-9.353-5.694-14.086-7.719-5.024-2.149-6.525-8.13-5.762-16.162.197-2.081.504-4.13.92-6.148a3 3 0 0 0-3.72-3.503L8.227 9.996a4 4 0 0 0-2.957 3.862V27.57c-.02.78-.124 2.161-.346 3.677-.375 2.563-.978 4.727-1.896 6.248C1.289 40.37.383 45.857 1.5 49.332c.516 1.608 1.488 2.74 2.82 3.366 1.688.792 4.158 1.087 7.319.974 1.608-.057 3.255-.208 5.365-.465.396-.048 2.288-.286 2.75-.34.93-.11 1.547-.162 2.016-.162 1.087 0 1.945.104 8.909 1.018l.862.113c4.624.601 7.323.888 8.798.888 2.954 0 5.819-.35 8.737-1.121l.243-.065.245.058c1.5.357 3.289.63 5.1.665 2.584.049 4.695-.417 6.074-1.485 1.177-.91 1.798-2.27 1.798-3.993 0-1.73-.447-2.975-1.292-3.76zm0 0z"/>
        <path fill="#545454" d="M17.557 40.206c1.424 0 2.9-.485 4.275-1.464a1.267 1.267 0 0 0 .298-1.765 1.26 1.26 0 0 0-1.76-.298c-1.98 1.408-4.061 1.321-5.567-.235-1.283-1.326-1.937-3.674-.62-5.414a1.266 1.266 0 0 0-.245-1.773 1.26 1.26 0 0 0-1.77.244c-1.9 2.515-1.548 6.257.822 8.705 1.285 1.329 2.89 2 4.567 2z"/>
    </g>
</svg>
