<svg xmlns="http://www.w3.org/2000/svg" width="64" height="64" viewBox="0 0 64 64">
    <path fill="none" fill-rule="nonzero" stroke="#545454" stroke-width="2" d="M25.158 56.793a136.543 136.543 0 0 1-1.662-1.48l-.164-.15c-.78-.714-1.355-1.269-1.672-1.63-.478-.54-.455-.514-.598-.663-1.83-1.953-3.575-6.751-4.61-11.885l-.168-.835.799-.299c4.352-1.626 9.138-5.405 14.053-10.69 3.386-3.638 6.39-7.491 8.796-10.954l.591-.851.83.622c8.845 6.629 10.584 14.9 8.255 26.149-.71 3.433-2.412 6.75-4.74 9.842a34.033 34.033 0 0 1-2.46 2.916c-.502.53-.974.988-1.113 1.107-.038.034-.051.066-.049.11.001.032.021.07.052.094 2.256 1.707 4.48 2.39 6.626 2.077 2.802-.408 5.042-2.272 7.343-5.408 3.808-5.203 3.525-15.892.062-28.692C52.586 16.031 47.994 5.96 46.183 5.12c-2.172-1.011-4.224-1.1-5.893-.687l-.376.093-.34-.184c-4.365-2.359-9.087-2.947-13.7-1.714C20.377 4.1 15.248 8.152 12.83 12.333 4.286 27.1 4.446 45.589 11.337 57.229c2.411 4.072 3.217 4.672 6.204 4.672 1.324 0 3.382-.983 5.215-2.447.84-.67 1.547-1.378 1.993-1.99.22-.302.346-.54.41-.67z"/>
</svg>
