<svg xmlns="http://www.w3.org/2000/svg" width="64" height="64" viewBox="0 0 64 64">
    <g fill="none" fill-rule="evenodd" stroke="#545454" stroke-width="2">
        <path d="M8.036 27.467c-.045.016-.038.002-.022.045l2.943 8.558 3.177 8.012a76.807 76.807 0 0 0 2.187 5.42c1.596 3.554 3.302 6.612 5.018 9.19a42.698 42.698 0 0 0 1.684 2.365c.136.176.31.396.456.578.142.007.322.014.537.02.603.019 1.469.035 2.545.047 2.077.025 4.858.036 7.687.031a536.64 536.64 0 0 0 7.685-.059c1.081-.018 1.941-.04 2.54-.064.304-.013.537-.026.69-.04-.443.039-.16-.009-.463.398 2.419-3.673 3.8-8.784 4.329-14.729.347-3.903.285-7.67.052-10.157l-.023-.243.092-.226 6.24-15.354c.282-.846.255-1.676-.096-2.427-.368-.79-.984-1.352-1.75-1.607-.843-.281-1.728-.253-2.425.095-.79.369-1.353.985-1.621 1.787l-4.813 12.735-1.94-.646.154-.852 3.648-20.307c.308-1.643-.828-3.267-2.504-3.581-1.643-.308-3.267.828-3.58 2.498l-3.785 20.85-1.983-.178V5.129A3.14 3.14 0 0 0 31.565 2a3.142 3.142 0 0 0-3.128 3.134l-.138 24.498-1.983.174L22.394 8.41c-.314-1.676-1.938-2.813-3.58-2.505-1.676.314-2.813 1.938-2.505 3.582l5.588 29.947h-2.149l-.255-.62-2.217-5.406c-1.037-2.853-2.357-4.716-3.964-5.668-1.539-.888-3.3-.992-5.282-.27l.006-.003zM23.48 61.636l.09.113c-.045-.096.035-.104-.09-.113zm.284.351c.002.002.002.002 0 0z"/>
        <path stroke-linecap="round" d="M20 39.473c4.667-.667 7.667-.111 9 1.666"/>
    </g>
</svg>
