<svg xmlns="http://www.w3.org/2000/svg" width="32" height="32" viewBox="0 0 32 32">
    <path fill="none" fill-rule="evenodd" stroke="#545454" d="M11.39 12.5l-1.75 7H4.618a.5.5 0 0 0-.447.276l-.224.448a.191.191 0 0 0 .171.276H9.39l-1.662 6.651A.28.28 0 0 0 8 27.5h.22a.5.5 0 0 0 .484-.379L10.36 20.5h8.03l-1.662 6.651A.28.28 0 0 0 17 27.5h.22a.5.5 0 0 0 .484-.379L19.36 20.5h7.022a.5.5 0 0 0 .447-.276l.224-.448a.191.191 0 0 0-.171-.276H19.61l1.75-7h6.022a.5.5 0 0 0 .447-.276l.224-.448a.191.191 0 0 0-.171-.276H21.61l1.662-6.651A.28.28 0 0 0 23 4.5h-.22a.5.5 0 0 0-.484.379L20.64 11.5h-8.03l1.662-6.651A.28.28 0 0 0 14 4.5h-.22a.5.5 0 0 0-.484.379L11.64 11.5H5.618a.5.5 0 0 0-.447.276l-.224.448a.191.191 0 0 0 .171.276h6.272zm-.78 7l1.75-7h8.03l-1.75 7h-8.03z"/>
</svg>
