<?xml version="1.0" encoding="UTF-8"?>
<svg width="32px" height="32px" viewBox="0 0 32 32" version="1.1" xmlns="http://www.w3.org/2000/svg" xmlns:xlink="http://www.w3.org/1999/xlink">
    <!-- Generator: sketchtool 49.3 (51167) - http://www.bohemiancoding.com/sketch -->
    <title>C4AFF075-8F81-40C2-A636-B8926B9140EF</title>
    <desc>Created with sketchtool.</desc>
    <defs></defs>
    <g id="Symbols" stroke="none" stroke-width="1" fill="none" fill-rule="evenodd">
        <g id="Icon-/-Post-/-Images" fill="#FFFFFF">
            <g id="Icon-/-Post-/-Video">
                <g transform="translate(4.000000, 4.000000)">
                    <path d="M22,7 L23,7 C24.1045695,7 25,7.8954305 25,9 L25,23 C25,24.1045695 24.1045695,25 23,25 L9,25 C7.8954305,25 7,24.1045695 7,23 L7,22 L21,22 C21.5522847,22 22,21.5522847 22,21 L22,7 Z" id="Combined-Shape"></path>
                    <path d="M2,0 L18,0 C19.1045695,-2.02906125e-16 20,0.8954305 20,2 L20,18 C20,19.1045695 19.1045695,20 18,20 L2,20 C0.8954305,20 1.3527075e-16,19.1045695 0,18 L0,2 C-1.3527075e-16,0.8954305 0.8954305,2.02906125e-16 2,0 Z M6.90742713,11.4882545 C6.8986249,11.4835183 6.88975215,11.4789144 6.88081188,11.4744442 C6.38683338,11.227455 5.78616034,11.4276793 5.53917109,11.9216578 L3.7236068,15.5527864 C3.65417908,15.6916418 3.61803399,15.8447549 3.61803399,16 C3.61803399,16.5522847 4.06574924,17 4.61803399,17 L15.461238,17 C15.6011564,17 15.7395175,16.9706378 15.8673765,16.9138115 C16.3720607,16.6895075 16.5993537,16.0985457 16.3750496,15.5938615 L13.6652426,9.49679589 C13.6006924,9.3515578 13.5024531,9.22379761 13.3786689,9.12410657 C12.9485342,8.77769269 12.3190172,8.84556183 11.9726033,9.27569654 L9.71915425,12.073756 C9.41708634,12.4488273 8.89058894,12.5553237 8.46649761,12.3271352 L6.90742713,11.4882545 Z" id="Combined-Shape"></path>
                </g>
            </g>
        </g>
    </g>
</svg>