<?xml version="1.0" encoding="UTF-8"?>
<svg width="40px" height="40px" viewBox="0 0 40 40" version="1.1" xmlns="http://www.w3.org/2000/svg" xmlns:xlink="http://www.w3.org/1999/xlink">
    <!-- Generator: sketchtool 49.3 (51167) - http://www.bohemiancoding.com/sketch -->
    <title>3D7923E1-0A4F-4B9E-8BEA-1699A412D12C</title>
    <desc>Created with sketchtool.</desc>
    <defs></defs>
    <g id="Symbols" stroke="none" stroke-width="1" fill="none" fill-rule="evenodd">
        <g id="Social-/-Insta" fill="#000000" fill-rule="nonzero">
            <g id="instagram-logo">
                <g transform="translate(4.000000, 4.000000)">
                    <path d="M23.0411294,0 L8.78192941,0 C3.93957647,0 0,3.93976471 0,8.78211765 L0,23.0413176 C0,27.8838588 3.93957647,31.8234353 8.78192941,31.8234353 L23.0411294,31.8234353 C27.8838588,31.8234353 31.8234353,27.8836706 31.8234353,23.0413176 L31.8234353,8.78211765 C31.8236235,3.93976471 27.8838588,0 23.0411294,0 Z M29.0000941,23.0413176 C29.0000941,26.3269647 26.3269647,28.9999059 23.0413176,28.9999059 L8.78192941,28.9999059 C5.49647059,29.0000941 2.82352941,26.3269647 2.82352941,23.0413176 L2.82352941,8.78211765 C2.82352941,5.49665882 5.49647059,2.82352941 8.78192941,2.82352941 L23.0411294,2.82352941 C26.3267765,2.82352941 28.9999059,5.49665882 28.9999059,8.78211765 L28.9999059,23.0413176 L29.0000941,23.0413176 Z" id="Shape"></path>
                    <path d="M15.9117176,7.712 C11.3901176,7.712 7.71162353,11.3904941 7.71162353,15.9120941 C7.71162353,20.4335059 11.3901176,24.1118118 15.9117176,24.1118118 C20.4333176,24.1118118 24.1118118,20.4335059 24.1118118,15.9120941 C24.1118118,11.3904941 20.4333176,7.712 15.9117176,7.712 Z M15.9117176,21.2880941 C12.9472,21.2880941 10.5351529,18.8764235 10.5351529,15.9119059 C10.5351529,12.9472 12.9470118,10.5353412 15.9117176,10.5353412 C18.8764235,10.5353412 21.2882824,12.9472 21.2882824,15.9119059 C21.2882824,18.8764235 18.8762353,21.2880941 15.9117176,21.2880941 Z" id="Shape"></path>
                    <path d="M24.4557176,5.31783529 C23.9117176,5.31783529 23.3773176,5.53807059 22.9931294,5.92395294 C22.6070588,6.30795294 22.3851294,6.84254118 22.3851294,7.38842353 C22.3851294,7.93261176 22.6072471,8.46701176 22.9931294,8.85289412 C23.3771294,9.23689412 23.9117176,9.45901176 24.4557176,9.45901176 C25.0016,9.45901176 25.5343059,9.23689412 25.9201882,8.85289412 C26.3060706,8.46701176 26.5263059,7.93242353 26.5263059,7.38842353 C26.5263059,6.84254118 26.3060706,6.30795294 25.9201882,5.92395294 C25.5361882,5.53807059 25.0016,5.31783529 24.4557176,5.31783529 Z" id="Shape"></path>
                </g>
            </g>
        </g>
    </g>
</svg>