<svg xmlns="http://www.w3.org/2000/svg" width="40" height="40" viewBox="0 0 40 40">
    <path fill="#000" fill-rule="nonzero" d="M36 31.556A4.444 4.444 0 0 1 31.556 36H8.444A4.444 4.444 0 0 1 4 31.556V8.444A4.444 4.444 0 0 1 8.444 4h23.112A4.444 4.444 0 0 1 36 8.444v23.112zm-26.667-16v15.11h4.445v-15.11H9.333zm2.209-1.778c1.378 0 2.236-.99 2.236-2.222-.025-1.264-.858-2.223-2.209-2.223-1.35 0-2.236.959-2.236 2.223 0 1.232.858 2.222 2.184 2.222h.025zm19.125 16.889V22.02c0-4.465-2.386-6.465-5.566-6.465-2.566 0-3.57 1.333-4.212 2.326v-2.326h-4.445v15.11h4.445v-8c0-.433-.038-1.294.09-1.607.35-.868 1.073-1.767 2.406-1.767 1.747 0 2.837 1.333 2.837 3.288v8.087h4.445z"/>
</svg>
