<?xml version="1.0" encoding="UTF-8"?>
<svg width="136px" height="47px" viewBox="0 0 136 47" version="1.1" xmlns="http://www.w3.org/2000/svg" xmlns:xlink="http://www.w3.org/1999/xlink">
    <!-- Generator: sketchtool 49.3 (51167) - http://www.bohemiancoding.com/sketch -->
    <title>E9990D80-0D0D-4005-A171-872B360431F3</title>
    <desc>Created with sketchtool.</desc>
    <defs>
        <polygon id="path-1" points="0 46.1689708 136 46.1689708 136 0 0 0"></polygon>
    </defs>
    <g id="Symbols" stroke="none" stroke-width="1" fill="none" fill-rule="evenodd">
        <g id="Topbar" transform="translate(-40.000000, -23.000000)">
            <g id="Logo">
                <g transform="translate(40.000000, 23.000000)">
                    <path d="M18.7896415,25.5064885 C18.0858345,26.6993981 17.0429267,27.656088 15.659534,28.3758634 C14.2761414,29.0956387 12.5924024,29.4562212 10.6097011,29.4562212 C8.65122127,29.4562212 6.90312232,29.1227345 5.36540425,28.4536769 C3.82353392,27.7873983 2.59031447,26.8237608 1.66436182,25.5662382 C0.738409175,24.3080208 0.208304744,22.842069 0.0802769112,21.1656037 L5.95087206,21.1656037 C6.08236011,22.2911212 6.53149559,23.2290525 7.30173871,23.9759237 C8.07059775,24.7221001 9.09482041,25.0958831 10.3744067,25.0958831 C11.5218129,25.0958831 12.4027828,24.7867131 13.0152403,24.1718471 C13.6283898,23.5562863 13.9356566,22.7642554 13.9356566,21.7936703 C13.9356566,20.9286893 13.6872134,20.214472 13.191711,19.6531028 C12.6969008,19.0889545 12.0706025,18.637358 11.3135081,18.2962289 C10.5564138,17.9550998 9.51281398,17.5625582 8.1827086,17.1172146 C6.45952318,16.5426449 5.04983294,15.9722437 3.95432992,15.4087902 C2.85813486,14.8439472 1.9238777,14.0255153 1.15640275,12.9507156 C0.38477554,11.8786949 0,10.4759666 0,8.74600453 C0,6.3629644 0.856056372,4.48293332 2.56609299,3.10730083 C4.27266939,1.73166833 6.53703192,1.04454685 9.35710445,1.04454685 C12.2795992,1.04454685 14.6076297,1.75112172 16.3439639,3.16705052 C18.078222,4.58228456 19.0650744,6.46856851 19.2982926,8.82381808 L13.3501887,8.82381808 C13.191711,7.83030572 12.7744095,7.0111791 12.0975921,6.36852251 C11.4180065,5.72656068 10.4920539,5.40696929 9.316966,5.40696929 C8.3003558,5.40696929 7.47613338,5.67584291 6.84983506,6.2128954 C6.22422879,6.75064265 5.91073361,7.52947296 5.91073361,8.55008111 C5.91073361,9.36156533 6.15156434,10.0382654 6.63599398,10.5732335 C7.11765545,11.110286 7.73288108,11.5507663 8.47475047,11.8891163 C9.21800394,12.2309402 10.2297698,12.6116708 11.5086641,13.0313082 C13.2830606,13.6593747 14.7252769,14.2478397 15.8353128,14.7987875 C16.9432726,15.3497353 17.8906785,16.1737252 18.6719943,17.2756208 C19.4560783,18.3740425 19.8463902,19.817067 19.8463902,21.5977469 C19.8463902,23.0108966 19.4941406,24.316358 18.7896415,25.5064885" id="Fill-1" fill="#FEFEFE"></path>
                    <path d="M33.2165899,24.4916357 L33.2165899,29.2473118 L30.3121896,29.2473118 C27.8784354,29.2473118 26.0125109,28.6587587 24.7158045,27.4795678 C23.4197922,26.2996821 22.7728274,24.332511 22.7728274,21.5822237 L22.7728274,12.1507813 L20.890937,12.1507813 L20.890937,7.47362528 L22.7728274,7.47362528 L22.7728274,2.0890937 L28.3102081,2.0890937 L28.3102081,7.47362528 L33.1791048,7.47362528 L33.1791048,12.1507813 L28.3102081,12.1507813 L28.3102081,21.6621335 C28.3102081,22.7106892 28.5191528,23.4437749 28.9384305,23.8627802 C29.3563198,24.2817856 30.0629831,24.4916357 31.0591147,24.4916357 L33.2165899,24.4916357 Z" id="Fill-3" fill="#FEFEFE"></path>
                    <mask id="mask-2" fill="white">
                        <use xlink:href="#path-1"></use>
                    </mask>
                    <g id="Clip-6"></g>
                    <polygon id="Fill-5" fill="#FEFEFE" mask="url(#mask-2)" points="61.0015361 29.0384025 66.6420891 29.0384025 66.6420891 0 61.0015361 0"></polygon>
                    <path d="M34.7916738,42.0531768 C33.3250403,42.0531768 32.1337492,40.8688205 32.1337492,39.4134968 C32.1337492,37.9560941 33.3250403,36.7717378 34.7916738,36.7717378 C36.2583072,36.7717378 37.4495984,37.9560941 37.4495984,39.4134968 C37.4495984,40.8688205 36.2583072,42.0531768 34.7916738,42.0531768 M51.188831,12.9134382 L47.1681362,20.7777303 L43.1216499,12.8981919 C41.3615503,9.46917209 37.8162567,7.31182796 33.9440377,7.31182796 L33.9147608,7.31182796 L44.2460224,25.7660255 L42.9076497,27.9635643 L39.1853005,34.2651159 C37.9995859,33.2630216 36.4667309,32.6552507 34.7916738,32.6552507 C31.042836,32.6552507 27.9938556,35.6857891 27.9938556,39.4134968 C27.9938556,43.1377394 31.042836,46.1689708 34.7916738,46.1689708 C37.6949667,46.1689708 40.1716533,44.3484302 41.1433677,41.7981486 L47.1709245,30.9906376 L50.1167386,25.7071196 L60.374808,7.31182796 C56.4970124,7.31182796 52.9468393,9.47610221 51.188831,12.9134382" id="Fill-7" fill="#231F20" mask="url(#mask-2)"></path>
                    <path d="M59.4488922,42.2334104 C57.9869503,42.2334104 56.7994699,41.0408023 56.7994699,39.5725477 C56.7994699,38.1077822 57.9869503,36.9151742 59.4488922,36.9151742 C60.9108341,36.9151742 62.0983145,38.1077822 62.0983145,39.5725477 C62.0983145,41.0408023 60.9108341,42.2334104 59.4488922,42.2334104 M59.4488922,32.7700065 C57.797954,32.7700065 56.284594,33.3673573 55.1082311,34.3554983 L52.0926285,29.2473118 L49.093702,34.6799937 L53.0793003,41.8712316 C54.0208075,44.4944109 56.5159755,46.3778802 59.4488922,46.3778802 C63.185738,46.3778802 66.2242704,43.3255294 66.2242704,39.5725477 C66.2242704,35.8216594 63.185738,32.7700065 59.4488922,32.7700065" id="Fill-8" fill="#231F20" mask="url(#mask-2)"></path>
                    <path d="M82.4769409,22.864613 C81.3869984,24.0056556 80.0005581,24.5754811 78.3211,24.5754811 C76.5908336,24.5754811 75.1995213,24.018875 74.149947,22.9049669 C73.0975886,21.7882759 72.5755855,20.2471726 72.5755855,18.2802657 C72.5755855,16.3112714 73.0975886,14.7639064 74.149947,13.6367789 C75.1995213,12.5096515 76.5908336,11.945392 78.3211,11.945392 C80.0005581,11.945392 81.3869984,12.5152175 82.4769409,13.6562601 C83.5640995,14.796607 84.1104627,16.338406 84.1104627,18.2802657 C84.1104627,20.1956865 83.5640995,21.7235704 82.4769409,22.864613 Z M84.1104627,7.37983014 L84.1104627,11.9043423 C83.5585314,10.4355979 82.6279738,9.26811647 81.313918,8.40189817 C80.0005581,7.53567986 78.4268926,7.10291859 76.5908336,7.10291859 C74.7526866,7.10291859 73.0975886,7.54889926 71.6283238,8.44225211 C70.159059,9.33282194 69.0127401,10.6269312 68.1837992,12.3190139 C68.155263,12.3767618 68.1315988,12.4386842 68.1044547,12.4971278 L68.1044547,24.0640992 C68.1315988,24.1232386 68.155263,24.1837695 68.1837992,24.2415174 C69.0127401,25.9342958 70.159059,27.2277094 71.6283238,28.1189749 C73.0975886,29.011632 74.7526866,29.4562212 76.5908336,29.4562212 C78.4268926,29.4562212 80.0005581,29.0171981 81.313918,28.1377604 C82.6279738,27.26041 83.5585314,26.0852753 84.1104627,24.6165308 L84.1104627,29.1813969 L89.6221198,29.1813969 L89.6221198,7.37983014 L84.1104627,7.37983014 Z" id="Fill-9" fill="#FEFEFE" mask="url(#mask-2)"></path>
                    <path d="M105.485516,22.864613 C104.399927,24.0056556 103.019025,24.5754811 101.346277,24.5754811 C99.6229223,24.5754811 98.237168,24.018875 97.1917866,22.9049669 C96.1436323,21.7882759 95.6237145,20.2471726 95.6237145,18.2802657 C95.6237145,16.3112714 96.1436323,14.7639064 97.1917866,13.6367789 C98.237168,12.5096515 99.6229223,11.945392 101.346277,11.945392 C103.019025,11.945392 104.399927,12.5152175 105.485516,13.6562601 C106.568331,14.796607 107.112512,16.338406 107.112512,18.2802657 C107.112512,20.1956865 106.568331,21.7235704 105.485516,22.864613 Z M107.112512,7.37983014 L107.112512,11.9043423 C106.562785,10.4355979 105.635252,9.26811647 104.327139,8.40189817 C103.019025,7.53567986 101.451647,7.10291859 99.6229223,7.10291859 C97.7921184,7.10291859 96.1436323,7.54889926 94.680237,8.44225211 C93.2168417,9.33282194 92.0744089,10.6269312 91.2494727,12.3190139 C91.1905486,12.4400757 91.1392501,12.5646163 91.0844854,12.6884612 L91.0844854,23.8720701 C91.1392501,23.995915 91.1905486,24.1218471 91.2494727,24.2415174 C92.0744089,25.9342958 93.2168417,27.2277094 94.680237,28.1189749 C96.1436323,29.011632 97.7921184,29.4562212 99.6229223,29.4562212 C101.451647,29.4562212 103.019025,29.0171981 104.327139,28.1377604 C105.635252,27.26041 106.562785,26.0852753 107.112512,24.6165308 L107.112512,29.1813969 L112.602151,29.1813969 L112.602151,7.37983014 L107.112512,7.37983014 Z" id="Fill-10" fill="#FEFEFE" mask="url(#mask-2)"></path>
                    <path d="M128.8486,22.864613 C127.757709,24.0056556 126.370061,24.5754811 124.689837,24.5754811 C122.958064,24.5754811 121.565541,24.018875 120.514356,22.9049669 C119.461081,21.7882759 118.938624,20.2471726 118.938624,18.2802657 C118.938624,16.3112714 119.461081,14.7639064 120.514356,13.6367789 C121.565541,12.5096515 122.958064,11.945392 124.689837,11.945392 C126.370061,11.945392 127.757709,12.5152175 128.8486,13.6562601 C129.936705,14.796607 130.483544,16.338406 130.483544,18.2802657 C130.483544,20.1956865 129.936705,21.7235704 128.8486,22.864613 Z M130.483544,7.37983014 L130.483544,11.9043423 C129.931829,10.4355979 128.999764,9.26811647 127.685261,8.40189817 C126.370061,7.53567986 124.795025,7.10291859 122.958064,7.10291859 C121.11762,7.10291859 119.461081,7.54889926 117.991234,8.44225211 C116.52069,9.33282194 115.372676,10.6269312 114.543014,12.3190139 C114.446881,12.5152175 114.357715,12.7162915 114.273425,12.9208443 L114.273425,23.6403828 C114.357715,23.8442398 114.446881,24.0453138 114.543014,24.2415174 C115.372676,25.9342958 116.52069,27.2277094 117.991234,28.1189749 C119.461081,29.011632 121.11762,29.4562212 122.958064,29.4562212 C124.795025,29.4562212 126.370061,29.0171981 127.685261,28.1377604 C128.999764,27.26041 129.931829,26.0852753 130.483544,24.6165308 L130.483544,29.1813969 L136,29.1813969 L136,7.37983014 L130.483544,7.37983014 Z" id="Fill-11" fill="#FEFEFE" mask="url(#mask-2)"></path>
                </g>
            </g>
        </g>
    </g>
</svg>