<?xml version="1.0" encoding="UTF-8"?>
<svg width="48px" height="48px" viewBox="0 0 48 48" version="1.1" xmlns="http://www.w3.org/2000/svg" xmlns:xlink="http://www.w3.org/1999/xlink">
    <!-- Generator: sketchtool 49.3 (51167) - http://www.bohemiancoding.com/sketch -->
    <title>E3692789-37C2-4C5A-8FEF-10B6ED26C05E</title>
    <desc>Created with sketchtool.</desc>
    <defs></defs>
    <g id="User" stroke="none" stroke-width="1" fill="none" fill-rule="evenodd">
        <g id="3.1-Homepage" transform="translate(-295.000000, -320.000000)">
            <g id="Row-1" transform="translate(40.000000, 304.000000)">
                <g id="Post">
                    <g id="Group-7" transform="translate(255.000000, 16.000000)">
                        <circle id="Oval" fill="#FFCD35" cx="24" cy="24" r="24"></circle>
                        <path d="M18.4801664,31.7859532 C17.7293184,31.7859532 17.1194328,31.1796179 17.1194328,30.4345599 C17.1194328,29.6884376 17.7293184,29.0821023 18.4801664,29.0821023 C19.2310145,29.0821023 19.8409001,29.6884376 19.8409001,30.4345599 C19.8409001,31.1796179 19.2310145,31.7859532 18.4801664,31.7859532 M26.8747475,16.8677637 C27.774766,15.1080077 29.5922893,14 31.5775401,14 L26.3258862,23.4175329 L24.8177665,26.1224482 L21.731938,31.6553907 C21.2344655,32.9610161 19.9665172,33.8930481 18.4801664,33.8930481 C16.560936,33.8930481 15,32.3411988 15,30.4345599 C15,28.5261471 16.560936,26.9746526 18.4801664,26.9746526 C19.3377177,26.9746526 20.1224681,27.285803 20.7294988,27.7988286 L22.6351682,24.5727276 L23.3203528,23.44769 L18.0312278,14 L18.0462162,14 C20.0286121,14 21.8436374,15.1044598 22.7447264,16.8599583 L24.816339,20.8939151 L26.8747475,16.8677637 Z M31.1035143,27.0334022 C33.0166054,27.0334022 34.5721925,28.5957064 34.5721925,30.5159866 C34.5721925,32.4373385 33.0166054,34 31.1035143,34 C29.6019975,34 28.3245877,33.0357514 27.8425798,31.6928057 L25.802139,28.0112267 L27.3374498,25.2299465 L28.8812979,27.8451002 C29.483541,27.339218 30.2583109,27.0334022 31.1035143,27.0334022 Z M31.1035143,31.8782244 C31.8519605,31.8782244 32.4598952,31.2676646 32.4598952,30.5159866 C32.4598952,29.7660948 31.8519605,29.1555351 31.1035143,29.1555351 C30.3550682,29.1555351 29.7471335,29.7660948 29.7471335,30.5159866 C29.7471335,31.2676646 30.3550682,31.8782244 31.1035143,31.8782244 Z" id="Combined-Shape" fill="#231F20"></path>
                    </g>
                </g>
            </g>
        </g>
    </g>
</svg>