<?xml version="1.0" encoding="UTF-8"?>
<svg width="40px" height="40px" viewBox="0 0 40 40" version="1.1" xmlns="http://www.w3.org/2000/svg" xmlns:xlink="http://www.w3.org/1999/xlink">
    <!-- Generator: sketchtool 49.3 (51167) - http://www.bohemiancoding.com/sketch -->
    <title>A88C01E0-4E22-4BDA-B116-7833ED30849C</title>
    <desc>Created with sketchtool.</desc>
    <defs></defs>
    <g id="Symbols" stroke="none" stroke-width="1" fill="none" fill-rule="evenodd">
        <g id="Topbar-/-Notification" fill="#FFFFFF">
            <g id="Combined-Shape">
                <path d="M8,25 L8,17 C8,10.372583 13.372583,5 20,5 C26.627417,5 32,10.372583 32,17 L32,25 C33.1045695,25 34,25.8954305 34,27 C34,28.1045695 33.1045695,29 32,29 L8,29 C6.8954305,29 6,28.1045695 6,27 C6,25.8954305 6.8954305,25 8,25 Z M16,31 L24,31 C24,33.209139 22.209139,35 20,35 C17.790861,35 16,33.209139 16,31 Z"></path>
            </g>
        </g>
    </g>
</svg>