<svg xmlns="http://www.w3.org/2000/svg" width="48" height="48" viewBox="0 0 48 48">
    <g fill="#FFF" fill-rule="evenodd" transform="translate(9 6)">
        <circle cx="15" cy="8" r="8"/>
        <path d="M16.046 20a1.813 1.813 0 0 0-.146.804l.034.715a2 2 0 0 1-1.08 1.87l-.636.329a1.82 1.82 0 0 0-.697 2.6l.387.603a2 2 0 0 1 0 2.158l-.387.603A1.82 1.82 0 0 0 13.816 32H3.162a3 3 0 0 1-2.846-3.949l1.772-5.316A4 4 0 0 1 5.883 20h10.163zM23.92 36.692l-.214.138a1.4 1.4 0 0 1-2-.536l-.117-.227a2 2 0 0 0-1.87-1.08l-.255.013A1.4 1.4 0 0 1 18 33.536l.012-.255a2 2 0 0 0-1.08-1.87l-.226-.117a1.4 1.4 0 0 1-.536-2l.138-.215a2 2 0 0 0 0-2.158l-.138-.215a1.4 1.4 0 0 1 .536-2l.227-.117a2 2 0 0 0 1.08-1.87L18 22.464A1.4 1.4 0 0 1 19.464 21l.255.012a2 2 0 0 0 1.87-1.08l.117-.226a1.4 1.4 0 0 1 2-.536l.215.138a2 2 0 0 0 2.158 0l.215-.138a1.4 1.4 0 0 1 2 .536l.117.227a2 2 0 0 0 1.87 1.08l.255-.013A1.4 1.4 0 0 1 32 22.464l-.012.255a2 2 0 0 0 1.08 1.87l.226.117a1.4 1.4 0 0 1 .536 2l-.138.215a2 2 0 0 0 0 2.158l.138.215a1.4 1.4 0 0 1-.536 2l-.227.117a2 2 0 0 0-1.08 1.87l.013.255A1.4 1.4 0 0 1 30.536 35l-.255-.012a2 2 0 0 0-1.87 1.08l-.117.226a1.4 1.4 0 0 1-2 .536l-.215-.138a2 2 0 0 0-2.158 0zm.15-5.703a2 2 0 0 1 1.86 0l.54.284a.82.82 0 0 0 1.188-.864l-.103-.6a2 2 0 0 1 .576-1.77l.435-.425a.82.82 0 0 0-.454-1.398l-.602-.087a2 2 0 0 1-1.506-1.094l-.27-.546a.82.82 0 0 0-1.469 0l-.27.546a2 2 0 0 1-1.505 1.094l-.602.087a.82.82 0 0 0-.454 1.398l.435.425a2 2 0 0 1 .576 1.77l-.103.6a.82.82 0 0 0 1.189.864l.538-.284z"/>
    </g>
</svg>
