<?xml version="1.0" encoding="UTF-8"?>
<svg width="40px" height="40px" viewBox="0 0 40 40" version="1.1" xmlns="http://www.w3.org/2000/svg" xmlns:xlink="http://www.w3.org/1999/xlink">
    <!-- Generator: sketchtool 49.3 (51167) - http://www.bohemiancoding.com/sketch -->
    <title>E0C492C7-4528-4F85-B282-F85915A3CCE7</title>
    <desc>Created with sketchtool.</desc>
    <defs></defs>
    <g id="Symbols" stroke="none" stroke-width="1" fill="none" fill-rule="evenodd">
        <g id="Top-/-Search" fill="#FFFFFF" fill-rule="nonzero">
            <g transform="translate(-3.000000, -3.000000)" id="Combined-Shape">
                <path d="M25,31 C31.0751322,31 36,26.0751322 36,20 C36,13.9248678 31.0751322,9 25,9 C18.9248678,9 14,13.9248678 14,20 C14,26.0751322 18.9248678,31 25,31 Z M23,34.8678287 C15.6612811,33.8900443 10,27.6061537 10,20 C10,11.7157288 16.7157288,5 25,5 C33.2842712,5 40,11.7157288 40,20 C40,27.6061537 34.3387189,33.8900443 27,34.8678287 L27,43 C27,44.1045695 26.1045695,45 25,45 C23.8954305,45 23,44.1045695 23,43 L23,34.8678287 Z" transform="translate(25.000000, 25.000000) rotate(-45.000000) translate(-25.000000, -25.000000) "></path>
            </g>
        </g>
    </g>
</svg>