<?xml version="1.0" encoding="UTF-8"?>
<svg width="32px" height="32px" viewBox="0 0 32 32" version="1.1" xmlns="http://www.w3.org/2000/svg" xmlns:xlink="http://www.w3.org/1999/xlink">
    <!-- Generator: sketchtool 49.3 (51167) - http://www.bohemiancoding.com/sketch -->
    <title>7264AD0A-7462-4DF6-BFF0-C913C5D1918C</title>
    <desc>Created with sketchtool.</desc>
    <defs></defs>
    <g id="Symbols" stroke="none" stroke-width="1" fill="none" fill-rule="evenodd">
        <g id="Icon-/-Post-/-Video" fill="#FFFFFF">
            <g id="Combined-Shape">
                <g transform="translate(1.000000, 6.000000)">
                    <path d="M2,0 L18,0 C19.1045695,-2.02906125e-16 20,0.8954305 20,2 L20,18 C20,19.1045695 19.1045695,20 18,20 L2,20 C0.8954305,20 1.3527075e-16,19.1045695 0,18 L0,2 C-1.3527075e-16,0.8954305 0.8954305,2.02906125e-16 2,0 Z M10,13 C11.6568542,13 13,11.6568542 13,10 C13,8.34314575 11.6568542,7 10,7 C8.34314575,7 7,8.34314575 7,10 C7,11.6568542 8.34314575,13 10,13 Z M23.1055728,5.4472136 L27.1055728,3.4472136 C28.0935298,2.9532351 29.2948759,3.35368379 29.7888544,4.34164079 C29.9277098,4.61935166 30,4.92557779 30,5.23606798 L30,14.763932 C30,15.8685015 29.1045695,16.763932 28,16.763932 C27.6895098,16.763932 27.3832837,16.6916418 27.1055728,16.5527864 L23.1055728,14.5527864 C22.4280048,14.2140024 22,13.5214761 22,12.763932 L22,7.23606798 C22,6.47852386 22.4280048,5.78599762 23.1055728,5.4472136 Z"></path>
                </g>
            </g>
        </g>
    </g>
</svg>