<?xml version="1.0" encoding="UTF-8"?>
<svg width="40px" height="40px" viewBox="0 0 40 40" version="1.1" xmlns="http://www.w3.org/2000/svg" xmlns:xlink="http://www.w3.org/1999/xlink">
    <!-- Generator: sketchtool 49.3 (51167) - http://www.bohemiancoding.com/sketch -->
    <title>D7D31309-DD4E-468C-97D0-A0C59D339632</title>
    <desc>Created with sketchtool.</desc>
    <defs></defs>
    <g id="Symbols" stroke="none" stroke-width="1" fill="none" fill-rule="evenodd">
        <g id="Social-/-Youtube" fill="#000000" fill-rule="nonzero">
            <g id="youtube">
                <g transform="translate(2.000000, 8.000000)">
                    <path d="M33.3154495,2.06022937 C32.0640946,0.596903275 29.753729,0 25.3414452,0 L9.32488602,0 C4.81162151,0 2.46211613,0.635406067 1.21545806,2.19333902 C0,3.71232914 0,5.95044141 0,9.04804598 L0,14.952064 C0,20.9531091 1.44213333,24 9.32488602,24 L25.341557,24 C29.1678624,24 31.2881204,23.4732818 32.6598022,22.1818982 C34.066486,20.8576222 34.6666667,18.6954154 34.6666667,14.952064 L34.6666667,9.04804598 C34.6666667,5.78135915 34.5726194,3.53004593 33.3154495,2.06022937 Z M22.2561118,12.8151591 L14.9830452,16.5544402 C14.8204473,16.6380463 14.6426409,16.6795193 14.4650581,16.6795193 C14.2639914,16.6795193 14.063372,16.6262754 13.8856774,16.5204477 C13.5510882,16.3210033 13.3467785,15.9642474 13.3467785,15.5794395 L13.3467785,8.12485905 C13.3467785,7.7407112 13.550529,7.38428536 13.8844473,7.18473089 C14.2184774,6.98517643 14.6339183,6.97153544 14.9804731,7.14864828 L22.2535398,10.8638376 C22.6235785,11.0528313 22.855957,11.4286186 22.8565161,11.8386183 C22.8569634,12.248948 22.6255914,12.6252853 22.2561118,12.8151591 Z" id="XMLID_823_"></path>
                </g>
            </g>
        </g>
    </g>
</svg>